<svg xmlns="http://www.w3.org/2000/svg" width="458" height="206" fill="none"><g filter="url(#a)"><path fill="#fff" d="M380.4 73.77 405.8 2.5H431l25.7 71.27h-20.2l-3.7-12.9h-28.6l-3.8 12.9h-20Zm35.7-50.18-7.5 23.6h20.1l-7.5-23.6-1.2-3.46c-.3-1.25-.6-2.41-.8-3.66-.2-.48-.3-.87-.3-1.25-.1-.49-.2-.87-.2-1.26-.1.39-.2.77-.3 1.26-.1.38-.2.77-.2 1.25-.1.2-.1.29-.1.48 0 .1 0 .2-.1.29a39 39 0 0 1-.8 3.27c-.5.97-.8 2.03-1.1 3.08ZM298.4 73.77V2.5h19.5l27.9 36.6c.7 1.06 1.4 2.22 2 3.37.7 1.16 1.4 2.31 2 3.47l1.4 2.89c.5.96.9 1.92 1.4 2.79l-.3-2.31c-.1-.77-.2-1.54-.2-2.31-.2-1.54-.3-3.08-.3-4.63-.1-1.63-.1-3.17-.1-4.81V2.6h19.4v71.27h-19.4l-28.1-36.8c-.8-.86-1.5-1.92-2.2-3.17-.7-1.25-1.4-2.6-2-3.95-.4-.96-.9-1.83-1.4-2.8-.4-.86-.7-1.82-1.2-2.69a86.66 86.66 0 0 1 1.2 14.16v35.15h-19.6Zm-88-52.87a36.08 36.08 0 0 1 14.9-14.54A42.02 42.02 0 0 1 248 1.44c1 .1 2 .2 2.9.2 2.9.38 5.7 1.06 8.5 2.02 2.9.96 5.6 2.21 8.1 3.76 5.5 3.46 9.8 7.99 12.8 13.77 3 5.68 4.5 11.55 4.5 17.81 0 .77 0 1.54-.1 2.32 0 .77-.1 1.44-.2 2.21a33.14 33.14 0 0 1-2.4 9.15 36.2 36.2 0 0 1-15.2 16.85 43.03 43.03 0 0 1-21.7 5.97c-.5 0-1.1 0-1.6-.1h-1.5c-2.7-.18-5.3-.67-7.9-1.34-2.6-.67-5.1-1.64-7.4-2.8a36.95 36.95 0 0 1-15.3-13.96c-3.7-6.06-5.6-12.42-5.6-18.97 0-.96 0-1.93.1-2.89.1-.96.2-2.02.5-2.98.4-1.93.9-3.95 1.6-5.78.4-2.12 1.3-3.95 2.3-5.78Zm52.8 25.62.6-2.32c.2-.86.4-1.63.5-2.5.1-.48.1-1.06.1-1.54.1-.48.1-.96.1-1.44 0-.49 0-.87-.1-1.35v-1.35c-.4-3.18-1.4-6.26-3-9.25-1.6-2.98-3.9-5.3-6.7-6.93-.8-.39-1.5-.68-2.3-.96-.8-.3-1.5-.58-2.3-.77a9.4 9.4 0 0 0-2.3-.3c-.8-.19-1.5-.19-2.3-.19-3.9 0-7.6 1.16-10.9 3.57-3.3 2.4-5.7 5.58-7 9.53l-.2.48v.48l-.6 2.12c-.2.68-.3 1.35-.5 2.12l-.2 1.54v2.31c0 .2 0 .49.1.77.2 3.95 1.5 7.7 3.7 11.27a16.6 16.6 0 0 0 9.5 6.94l1.4.48c.5.1 1 .2 1.5.2l1.4.18h1.4c4.1 0 7.8-1.15 11-3.46 3.3-2.5 5.7-5.69 7.1-9.63Zm-82.1 20.6c-3.6 2.41-7.6 4.05-11.8 4.92-4.2.86-8.6 1.44-12.9 1.63-1.2.1-2.5.1-3.7.1h-23.8V2.5H154a74.01 74.01 0 0 1 15.9 1.73c4.1.87 7.9 2.6 11.3 4.92a29.6 29.6 0 0 1 10.1 11.56c2.4 4.81 3.8 9.72 4.1 14.73.1.48.1.87.1 1.35v2.8c-.2 5.29-1.5 10.4-3.9 15.3-2.4 4.92-6 9.06-10.5 12.24Zm-32.4-9.34c.2 0 .5 0 .7.1h.8c.3 0 .6 0 .8.1h3.1c.9-.1 1.7-.2 2.4-.2 2-.19 4-.48 5.9-.96 1.9-.48 3.7-1.35 5.2-2.31 2.5-1.73 4.3-4.05 5.5-6.93 1.2-2.99 1.9-6.07 1.9-9.25v-.87c0-.29 0-.57-.1-.86-.2-2.8-.9-5.59-2.1-8.19a15 15 0 0 0-5.1-6.36 14.38 14.38 0 0 0-5.5-2.6 32 32 0 0 0-6-.77h-7.5v39.1Zm-79.9 16V2.5h45.4V18H88.6v12.53h24v15.22h-24v12.03h25.5v16H68.8ZM9.4 50.84c.1.1.1.2.1.2.1 0 .2 0 .2.09 2.1 2.21 4.5 4.33 7.1 6.26 2.6 1.83 5.7 2.89 9.1 2.98.1 0 .2 0 .2.1h.3c.1 0 .2 0 .2.1h1.3c.4-.1.7-.2 1-.2 1.2-.19 2.4-.67 3.5-1.34a6.67 6.67 0 0 0 2.7-2.5l.2-.49.2-.48c.2-.48.3-.96.3-1.45.1-.48.1-.86.1-1.25 0-2.02-.9-3.66-2.8-5-1.7-1.35-3.7-2.51-5.8-3.28-.8-.29-1.6-.48-2.4-.67-.7-.2-1.5-.39-2.2-.58h-.2c-.1-.1-.2-.1-.2-.1-3.8-.87-7.4-2.31-10.7-4.24a16.1 16.1 0 0 1-6.9-8.57c-.2-.77-.5-1.54-.7-2.3-.2-.88-.3-1.74-.3-2.6v-3.29c.1-.57.2-1.15.3-1.82.2-1.54.6-2.99 1.2-4.43.5-1.45 1.2-2.8 2.1-4.05a21.9 21.9 0 0 1 9.5-8.47A30.3 30.3 0 0 1 29.1.87c1 0 2 .1 3 .19l3.3.29c2.8.48 5.6 1.25 8.2 2.21 2.8 1.06 5.3 2.31 7.7 3.66L44.9 21a56.3 56.3 0 0 0-6.6-3.94 16.4 16.4 0 0 0-7.5-1.64h-.9c-1.8.2-3.4.96-5 2.31-1.5 1.25-2.3 2.6-2.3 4.14v.68c.1.19.2.48.3.67.2.48.4.96.8 1.44.4.49.8.87 1.3 1.26.9.67 2.1 1.34 3.7 1.92 1.6.48 3.3 1.06 5.1 1.54 1.5.39 2.9.77 4.3 1.16 1.4.29 2.6.58 3.5.87 4.3 1.44 7.6 3.94 9.8 7.5 2.2 3.47 3.3 7.13 3.4 10.99v.57c0 .49 0 .87-.1 1.35v1.25c-.5 3.86-1.8 7.61-3.9 11.08a21.75 21.75 0 0 1-8.5 8.09 29.7 29.7 0 0 1-4.1 1.54c-1.4.39-2.8.67-4.2.96-1.1.2-2.3.39-3.5.49-1.1.19-2.2.19-3.4.19h-1.4c-4.6-.2-9.2-1.16-13.7-2.9a42 42 0 0 1-12-7.4l9.4-14.26ZM351 192.52c0-.3.1-.58.2-.87.1-.29.3-.58.5-.77.2-.2.5-.38.8-.58.3-.1.7-.2 1.1-.2.5 0 .9.1 1.3.3.4.2.8.38 1.1.67.2.3.4.58.6.97.1.38.2.77.2 1.25a6 6 0 0 1-.5 2.3c-.3.68-.7 1.36-1.3 1.84-.3.29-.5.48-.8.67-.3.2-.6.39-.9.48-.3.1-.5.3-.7.39-.1.1-.2.1-.4.2l-1.4-1.93c.2-.1.5-.2.8-.39.3-.1.6-.29.9-.48.3-.2.5-.48.7-.77.2-.29.3-.58.3-.96-.6 0-1.2-.2-1.7-.58-.6-.3-.8-.77-.8-1.54Zm7.8 0c0-.3.1-.58.2-.87.1-.29.3-.58.5-.77.2-.2.5-.38.8-.58.3-.1.7-.2 1.1-.2.5 0 .9.1 1.3.3.4.2.8.38 1.1.67.2.3.4.58.6.97a4.84 4.84 0 0 1-.3 3.56c-.3.67-.7 1.35-1.3 1.83-.3.29-.5.48-.8.67-.3.2-.6.39-.9.48-.3.1-.5.3-.7.39-.1.1-.2.1-.4.2l-1.3-1.93c.2-.1.5-.2.8-.39.3-.1.6-.29.9-.48.3-.2.5-.48.7-.77.2-.29.3-.58.3-.96-.6 0-1.2-.2-1.7-.58-.7-.3-.9-.77-.9-1.54ZM94.2 135.99c0 .28-.1.57-.2.86-.1.3-.3.58-.5.77-.5.48-1.2.77-1.9.77-.4 0-.9-.1-1.3-.29-.4-.19-.8-.38-1.1-.67-.3-.29-.5-.68-.6-.96-.1-.39-.2-.77-.2-1.25a6 6 0 0 1 .5-2.32c.3-.67.7-1.34 1.3-1.83.3-.29.5-.48.8-.67.3-.2.6-.39.9-.48.3-.1.5-.3.7-.39.2-.1.3-.1.4-.19l1.3 1.93c-.3.1-.6.19-.8.38-.3.1-.6.29-.9.48-.3.2-.5.48-.7.77-.2.3-.3.58-.3.97.7 0 1.2.19 1.7.57.7.39.9.87.9 1.55Zm-7.8 0c0 .57-.2 1.15-.7 1.63-.2.2-.5.39-.8.58a3.19 3.19 0 0 1-2.4-.1c-.4-.19-.8-.38-1.1-.67-.3-.29-.5-.68-.6-.96-.1-.39-.2-.77-.2-1.25a6 6 0 0 1 .5-2.32c.3-.67.7-1.34 1.3-1.83.2-.19.5-.48.8-.67.3-.2.6-.39.9-.48.3-.1.5-.3.7-.39.2-.1.3-.1.4-.19l1.3 1.93c-.2.1-.5.19-.8.38-.3.1-.6.29-.9.48-.3.2-.5.48-.7.77-.2.3-.3.58-.3.97.7 0 1.2.19 1.7.57.6.39.9.87.9 1.55Zm245.3 54.8h3.8l11.8-19.85h-3.8l-11.8 19.84Zm-.1 1.44c-1.2 0-2.2.96-2.2 2.12 0 1.15.9 2.12 2.2 2.12 1.2 0 2.2-.87 2.2-2.12s-1-2.12-2.2-2.12Zm-26.4-5.3 1.1-1.83c4.4-5.87 7.3-4.24 6-2.02l-1.8 2.98c-1.1 1.83-4.5 3.18-5.3.87Zm25.1 2.8a2.2 2.2 0 0 0-1.4-1.26l-.3.3c-1.3 1.53-2.9 2.78-4.5 3.94 1.2-3.47.9-8.76 3.3-13.48l-2.8-1.45c-1.6 2.03-5 6.84-8.4 10.7l-.3.28c-2.7 3.08-5.4 5.5-7 5.5-.8 0-1.6-.78-1.6-2.42v-1.54c2.7.3 5.5-1.35 7.2-4.33l1-1.64c3.5-5.78-2.2-7.7-6.1-4.33l5.4-8.96H311l-10.8 18.01c-.2-.2-.4-.29-.7-.48l-.3.29c-2.7 3.08-6.2 5.49-8.9 5.49-2.3 0-3.7-1.45-2-4.34l3.9-6.55c2.2-3.56 6-2.98 3.8.78l-.5.86h3.1l.5-.86c2-3.38.1-5.88-3-5.88s-5.5 1.54-7.1 4.24l-3.7 6.16c-.1 0-.2-.1-.2-.1l-.3.3c-2.7 3.08-5.4 5.48-7 5.48-.8 0-1.3-.57-.4-2.02l8.1-13.58h-3.8l-6.7 11.27c-2.9 2.5-5.1 3.95-5.8 3.56-.9-.38 0-1.73.5-2.5l7.4-12.42h-3.8l-7.3 12.23c-.8.67-2.4 1.34-3.2 1.83 1.2-3.47.9-8.77 3.3-13.49l-2.8-1.44c-1.6 2.02-10.3 13.2-13.7 17.05.3.48.9.86 1.4 1.25 2.1-2.41 9.3-11.27 10.7-13-1.5 3.75-.7 10.59-4.3 10.59-1.3 0-1.8-1.35-1.8-1.35l-2.4 1.16s.7 2.89 4.1 2.89c.4 0 .7 0 1.1-.1h.1c1.9-.29 4.6-1.06 6.4-2.31 0 1.44.9 2.4 2.5 2.4 2.1 0 4.4-1.82 6.2-3.46-.4 1.93.8 3.47 3.2 3.47 2.3 0 5-1.83 7.4-4.24 0 2.4 2 4.24 5.1 4.24 3.1 0 6.1-1.64 8.7-3.86l-2.1 3.57h3.8l4.3-7.23v2.9c0 3.08.6 4.71 3.7 4.71s6.7-3.18 9.8-6.74c2.1-2.4 4-4.91 5.4-6.64-1.5 3.75-.7 10.59-4.3 10.59-1.3 0-1.8-1.35-1.8-1.35l-2.4 1.16s.7 2.89 4.1 2.89c.4 0 .7 0 1.1-.1h.1c4-.48 7.8-3.47 10.6-6.65Zm-114.6-1.06h-.2c-1.2 0-2.2.96-2.2 2.21 0 .48.1.87.4 1.25v.1c-1.8 2.89-6.1 2.4-3.9-1.45l2.9-4.81 1.8-2.99c2.7-4.33 6.3-2.6 4 1.16l-2.8 4.53Zm-25.4 13.67c-.8 1.35-2.1 1.16-2.1.2 0-.97.9-2.03 3.8-3.09l-1.7 2.89Zm-28.8-13.29c-2.3 3.47-4.5 5.1-6.1 5.1-.8 0-1.3-.57-.4-2.02l5.3-8.86c2-3.37 6.1-2.5 4.2.77l-3 5.01Zm-12-14.16c1.1-1.83 2.4-2.7 3.4-2.7 1.4 0 2.1.87 2.1 2.22 0 3.37-4.4 10.4-10.2 9.54h-.8l5.5-9.06Zm92.8 13.58-.3.3c-2.7 3.07-5.4 5.48-7 5.48-.8 0-1.3-.58-.4-2.02l5.4-9.25c1.6-2.79.1-4.72-2-4.72-1.6 0-3.3.87-5.2 2.7l1.4-2.4h-3.8l-6.1 10.1c-.2-.1-.3-.19-.5-.28l-.3.28a7.9 7.9 0 0 1-5.7 2.7l3.6-5.87c2.3-3.86.2-7.42-3.4-7.42-2.9 0-5.2 1.16-7.3 4.72l-1.9 3.08-1.6 2.7c-.1-.1-.2-.1-.3-.2l-.3.3c-3.1 3.46-5.8 5.68-8.8 6.93l10.4-17.05h-3.8l-6.7 11.17c-2.9 2.6-5.2 4.05-5.9 3.76-.9-.38 0-1.73.5-2.5l7.4-12.43h-3.8l-6 10.02c-.1-.1-.2-.1-.3-.2l-.3.3c-2.7 3.08-5.4 5.48-7 5.48-.8 0-1.3-.57-.4-2.02l5.4-9.24c1.6-2.8.1-4.72-2-4.72-1.6 0-3.3.86-5.2 2.7l1.4-2.41h-3.8l-6 10.01c-.1-.1-.2-.1-.4-.19l-.3.29c-2.7 3.08-5.4 5.49-7 5.49-.8 0-1.3-.58-.4-2.02l6.1-10.3h-2.1c.1-1.55-1.5-3.67-4-3.67-2 0-4.9 1.54-6.5 4.24l-3.9 6.45c-.3-.2-.6-.38-.8-.48l-.3.29c-2.7 3.08-4.8 5.49-8.6 5.49-2.6 0-4.1-2.5-1.9-6.17l1.1-1.82c.7.1 1.4.19 2.1.19 4 0 8.6-2.02 11.6-7.03a9.44 9.44 0 0 0 1.5-4.91c0-3.28-2.2-5.4-5-5.4-2.1 0-4.5 1.45-6.2 4.24l-5.9 9.73a5.97 5.97 0 0 1-3.4-5.2c0-1.64.8-3.38 2.4-4.63l-1.2-2.12c-2.7 1.83-3.9 4.34-3.9 6.75 0 2.88 1.7 5.68 4.8 7.22l-1.1 1.93c-2.7 4.42-1.1 9.34 4.2 9.34 4.2 0 6.1-1.83 8.7-4.24-.8 2.31.4 4.24 3 4.24 1.5 0 3.4-.97 5.2-2.41.2 1.44 1.3 2.4 3.3 2.4 1.8 0 3.8-1.05 5.7-2.69l-1.4 2.31h3.8l5.8-9.72c5.8-6.94 8.4-6.07 6.7-3.38l-4.9 8.19c-1.6 2.7-.5 5.2 2.6 5.2 2 0 4.3-1.35 6.4-3.27-.5 2.02.5 3.27 2.4 3.27 1.8 0 3.9-1.44 5.6-2.89l-2.1 3.47c-5.1 1.44-8.3 3.47-8.3 6.26 0 3.47 5.6 4.24 8.3-.3l2.9-4.8c3.2-.97 6.3-2.9 9.5-5.98-.5 5.1 6.5 6.26 10.7 1.06h.8c1.4 0 3.2-.48 4.9-1.44l-2.5 4.23h3.8l5.8-9.72c5.8-6.94 8.4-6.07 6.7-3.37l-4.9 8.18c-1.6 2.7-.5 5.2 2.6 5.2s6.7-3.17 9.8-6.74c-.1 0-.7-.58-1.2-.77Zm118.6-34.28c-2.3 3.56-4.6 5.3-6.2 5.3-.8 0-1.3-.58-.4-2.03l5.3-8.86c2-3.37 6.1-2.5 4.2.77l-2.9 4.82Zm-36.2.19c-2.3 3.47-4.5 5.1-6.1 5.1-.8 0-1.3-.57-.4-2.02l5.3-8.86c2-3.37 6.1-2.5 4.2.77l-3 5.01Zm-39.9 13.29c-.8 1.35-2.1 1.16-2.1.2 0-.97.9-2.03 3.8-3.09l-1.7 2.89Zm8-27.45c1.1-1.83 2.4-2.7 3.4-2.7 6 0 1.5 13.87-8.1 11.75h-.8l5.5-9.05Zm77.7 13.58-.3.3c-2.7 3.07-5.4 5.48-7 5.48-.8 0-1.3-.58-.4-2.02l12.8-21.29h-3.8l-5.6 9.25a4.15 4.15 0 0 0-3.5-1.93c-2 0-4.9 1.54-6.5 4.24l-3.7 6.16c-.1 0-.2-.1-.2-.1l-.3.3c-2.7 3.08-5 5.49-6.7 5.49-.8 0-1.3-.58-.4-2.03l5.5-9.24c1.6-2.8.1-4.72-2-4.72-1.6 0-3.3.87-5.2 2.7l1.4-2.41h-3.8l-6 10.01c-.1-.1-.2-.1-.4-.19l-.3.3c-2.7 3.07-5.4 5.48-7 5.48-.8 0-1.3-.58-.4-2.02l6.1-10.3h-2.1c.1-1.55-1.5-3.67-4-3.67-2 0-4.9 1.54-6.5 4.24l-3.7 6.07-.2.2c-2.7 3.07-5.8 5.48-7.4 5.48-.8 0-1.3-.58-.4-2.02l3.8-6.36c1.3-2.21.7-3.47-.5-4.91l-2.1-2.4c-.5-.68-.5-1.45.2-2.13l-2-2.02c-2.1 1.83-2.3 3.95-1 5.59l.3.38c-1.7 2.31-3.9 5.4-6.4 8.19l.3.29c-3.1 3.46-5.8 5.68-8.7 6.93l4.8-7.9h-3.8l-.4.68c-2 3.37-4.3 5.78-7.2 5.78-2.6 0-3-2.5-.8-6.17l1.1-1.83c.7.1 1.4.2 2.1.2 13.4 0 19.9-17.34 8.1-17.34-2.1 0-4.5 1.45-6.2 4.24l-5.9 9.72a5.98 5.98 0 0 1-3.4-5.2c0-1.63.8-3.37 2.4-4.62l-1.2-2.12c-2.7 1.83-3.9 4.34-3.9 6.74 0 2.9 1.7 5.69 4.8 7.23l-1.1 1.92c-2.7 4.43-2.2 9.34 3.2 9.34 1.6 0 2.9-.48 4.1-1.15l-1 1.64c-5.1 1.54-8.3 3.46-8.3 6.26 0 3.46 5.6 4.23 8.3-.3l2.9-4.8c3.9-1.16 7.8-3.76 11.9-8.39-.1-.1-.1-.19-.2-.38 1.7-1.93 3.1-3.76 6-7.42l.5.58c.5.58.7 1.35.2 2.02l-4 6.65c-1.6 2.7-.5 5.2 2.6 5.2 1.9 0 4.3-1.16 6.4-2.89 0 1.64 1.1 2.89 3.3 2.89 1.5 0 3.4-.96 5.2-2.4.2 1.44 1.3 2.4 3.3 2.4 1.8 0 3.8-1.06 5.7-2.7l-1.4 2.31h3.8l5.8-9.72c5.8-6.94 8.4-6.07 6.7-3.37l-4.9 8.18c-1.6 2.7-.5 5.2 2.6 5.2 2 0 3.8-1.35 6-3.18-.2 1.83 1 3.18 3.3 3.18 1.5 0 3.4-.96 5.2-2.4.2 1.44 1.3 2.4 3.3 2.4 3.1 0 6.7-3.18 9.8-6.74-.5-.29-1.1-.87-1.6-1.06Zm-112.3-5.1c2.2-3.57 6-2.99 3.8.77l-.5.87c-1.8 2.98-4.3 2.88-5.7 2.4l2.4-4.04Zm-3 13.1c4.3 0 8.5-3.18 11.7-6.75-.3-.48-.9-1.06-1.4-1.25l-.3.3c-2.7 3.07-6.2 5.48-8.9 5.48-2.3 0-3.7-1.44-2-4.33l.4-.68c2.4.97 7 .48 9.8-4.23l.5-.87c2-3.37.1-5.88-3-5.88-3 0-5.5 1.54-7.1 4.24l-3.7 6.07s-.1 0-.1-.1l-.3.3c-2.7 3.07-5.4 5.48-7 5.48-.8 0-1.3-.58-.4-2.02l5.4-9.25c1.6-2.8.1-4.72-2-4.72-1.6 0-3.4.87-5.3 2.8l6-10.12h-3.8L233 154.1c-.1-.1-.3-.2-.4-.29l-.3.3c-2.7 3.07-5.4 5.48-7 5.48-.8 0-1.3-.58-.4-2.02l8.1-13.58h3.1l1.1-1.73h-3.1l3.6-5.98h-3.8l-3.6 5.97h-3.4l-1.1 1.74h3.4l-7.6 12.71c-1.6 2.7-.5 5.2 2.6 5.2 1.9 0 3.9-1.15 5.9-2.89l-1.5 2.5h3.8l5.7-9.62c5.8-7.03 8.4-6.17 6.8-3.47l-4.9 8.19c-1.6 2.7-.5 5.2 2.6 5.2 2.3 0 4.8-1.74 7.3-4.05.2 2.31 2.2 4.04 5.3 4.04Zm-127.5-13.1c2.2-3.57 6-2.99 3.8.77l-.5.87c-1.8 2.98-4.3 2.88-5.7 2.4l2.4-4.04Zm23.1 8.86 5.3-8.86c2-3.37 6.1-2.5 4.2.77l-2.9 5c-2.3 3.47-4.5 5.11-6.1 5.11-.9-.1-1.4-.58-.5-2.02Zm54-8.86c2.2-3.57 6-2.99 3.8.77l-.5.87c-1.8 2.98-4.2 2.88-5.7 2.4l2.4-4.04Zm-57.8 9.15c-.6 2.12.6 3.94 3.1 3.94 1.5 0 3.4-.96 5.2-2.4.2 1.44 1.3 2.4 3.3 2.4 2 0 4.2-1.34 6.4-3.17-.4 1.92.5 3.17 2.4 3.17 2.1 0 4.4-1.82 6.2-3.46-.4 1.92.8 3.46 3.2 3.46 3.1 0 6.7-3.17 9.8-6.74 0 0-.1-.1-.1-.19 2.1-2.31 3.9-4.81 5.2-6.55-1.5 3.76-.7 10.6-4.3 10.6-1.3 0-1.8-1.35-1.8-1.35l-2.4 1.15s.7 2.99 4.1 2.99c.4 0 .7 0 1.1-.1h.1c2.8-.38 5.5-2.02 7.9-4.04.1 2.4 2 4.14 5.1 4.14 4.3 0 8.5-3.18 11.7-6.74-.3-.48-.9-1.06-1.4-1.25l-.3.28c-2.7 3.09-6.2 5.5-8.9 5.5-2.3 0-3.7-1.45-2-4.34l.4-.67c2.4.96 7 .48 9.8-4.24l.5-.87c2-3.37.1-5.87-3-5.87s-5.5 1.54-7.1 4.23l-3.7 6.07h-.1l-.3.3c-1.3 1.53-2.9 2.78-4.5 3.94 1.2-3.47.9-8.76 3.3-13.48l-2.8-1.45c-1.6 2.02-5 6.84-8.4 10.7l.1.09-.1.2c-2.7 3.07-5.4 5.48-7 5.48-.8 0-1.3-.58-.4-2.02l8.1-13.58h-3.8l-6.7 11.27c-2.9 2.5-5.1 3.94-5.8 3.56-.9-.39 0-1.73.5-2.5l7.4-12.43h-3.8l-6 10.02c-.1-.1-.2-.1-.3-.2l-.3.3c-2.7 3.08-5.4 5.48-7 5.48-.8 0-1.3-.57-.4-2.02l6.1-10.3h-2.1c.1-1.54-1.5-3.66-4-3.66-2 0-4.9 1.54-6.5 4.23l-3.8 6.36c-.2-.1-.4-.29-.6-.38l-.3.28c-2.7 3.09-5.9 5.5-8.5 5.5-2.3 0-3.7-1.45-2-4.34l3.9-6.55c2.2-3.56 6-2.98 3.8.77l-.5.87h3.1l.5-.87c2-3.37.1-5.87-3-5.87s-5.1 1.54-6.7 4.23l-3.8 6.17c-.1-.1-.2-.1-.3-.2l-.3.3c-2.7 3.08-5.9 5.48-8.6 5.48-2.3 0-3.7-1.44-2-4.33l.4-.67c2.4.96 7 .48 9.8-4.24l.5-.87c2-3.37.1-5.87-3-5.87s-5.5 1.54-7.1 4.23l-4 6.55c-2.4 3.86-.3 7.42 4.1 7.42 3.3 0 6-1.93 8.8-4.43-.1 2.5 1.9 4.43 5.1 4.43 3.4.1 6.1-1.64 8.8-3.85Zm-36.9-13.49 3.1-5c2.8-4.63 6.3-1.93 4.4 1.54-1.5 2.6-3.6 3.46-7.5 3.46Zm-4.1 16.66c-2.3 0-4-.48-5.4-1.25.7-.77 1.3-1.63 1.9-2.6l6.4-10.6 1 .1c8.8 1.74 5.3 14.36-3.9 14.36Zm9.4-14.92c7.6-2.5 8.2-11.66.7-11.66-2.1 0-4.5 1.45-6.2 4.24l-10.2 16.95c-.4.77-.9 1.45-1.5 2.02-2.6-3.46-1.9-8.66 1.8-10.88l-1.5-1.83c-7.9 4.82-5.6 18.88 7.6 18.88 11.3 0 16.5-13.1 9.3-17.72Z"/></g><defs><filter id="a" width="464.7" height="212.91" x="-4" y=".87" color-interpolation-filters="sRGB" filterUnits="userSpaceOnUse"><feFlood flood-opacity="0" result="BackgroundImageFix"/><feColorMatrix in="SourceAlpha" result="hardAlpha" values="0 0 0 0 0 0 0 0 0 0 0 0 0 0 0 0 0 0 127 0"/><feOffset dy="4"/><feGaussianBlur stdDeviation="2"/><feComposite in2="hardAlpha" operator="out"/><feColorMatrix values="0 0 0 0 0 0 0 0 0 0 0 0 0 0 0 0 0 0 0.25 0"/><feBlend in2="BackgroundImageFix" result="effect1_dropShadow_33515_808"/><feBlend in="SourceGraphic" in2="effect1_dropShadow_33515_808" result="shape"/></filter></defs></svg>